<svg version="1.1" viewBox="0.0 0.0 960.0 720.0" fill="none" stroke="none" stroke-linecap="square" stroke-miterlimit="10" xmlns:xlink="http://www.w3.org/1999/xlink" xmlns="http://www.w3.org/2000/svg"><clipPath id="p.0"><path d="m0 0l960.0 0l0 720.0l-960.0 0l0 -720.0z" clip-rule="nonzero"/></clipPath><g clip-path="url(#p.0)"><path fill="#000000" fill-opacity="0.0" d="m0 0l960.0 0l0 720.0l-960.0 0z" fill-rule="evenodd"/><path fill="#009879" d="m256.85574 243.9516l0 0c65.51132 -114.490906 193.5404 -171.50458 317.11716 -141.21797c123.57672 30.286606 214.58722 140.98325 225.42523 274.1861c10.838013 133.20288 -60.96216 258.60815 -177.84283 310.61816c-116.88068 52.01001 -252.2514 18.79242 -335.30173 -82.2771l61.860138 -56.43982c58.883575 74.6098 155.87201 99.73242 239.896 62.139526c84.023926 -37.592896 135.80664 -129.2768 128.08191 -226.77545c-7.7247314 -97.49863 -73.18469 -178.4439 -161.91199 -200.21402c-88.727234 -21.770126 -180.36594 20.629395 -226.6637 104.87308z" fill-rule="evenodd"/><path fill="#009879" d="m453.39825 403.28525l0 0c0 -32.13687 24.27533 -58.188965 54.22049 -58.188965l0 0c14.380157 0 28.171356 6.130615 38.33963 17.043152c10.168335 10.912567 15.880859 25.713135 15.880859 41.145813l0 0c0 32.1369 -24.27533 58.188995 -54.22049 58.188995l0 0c-29.94516 0 -54.22049 -26.052094 -54.22049 -58.188995zm27.11026 0l0 0c0 17.164337 12.137665 31.078766 27.11023 31.078766c14.972565 0 27.11026 -13.914429 27.11026 -31.078766c0 -17.164307 -12.137695 -31.078735 -27.11026 -31.078735l0 0c-14.972565 0 -27.11023 13.914429 -27.11023 31.078735z" fill-rule="evenodd"/><path fill="#009879" d="m472.20496 30.03802l70.834656 0l0 76.40945l-70.834656 0z" fill-rule="evenodd"/><path fill="#009879" d="m393.3935 -8.139108l230.42517 0l0 49.92126l-230.42517 0z" fill-rule="evenodd"/><path fill="#000000" fill-opacity="0.0" d="m43.67979 331.20734l472.2205 0l0 144.1575l-472.2205 0z" fill-rule="evenodd"/><path fill="#009879" d="m85.67979 456.84485q-9.125 0 -15.25 -3.234375q-6.109375 -3.25 -9.234371 -10.015625q-3.109375 -6.78125 -3.46875 -17.59375l18.359371 -2.75q0.109375 6.234375 1.125 10.078125q1.03125 3.84375 2.890625 5.53125q1.859375 1.671875 4.5 1.671875q3.359375 0 4.375 -2.28125q1.015625 -2.28125 1.015625 -4.796875q0 -6.0 -2.875 -10.140625q-2.875 -4.140625 -7.796875 -8.34375l-8.40625 -7.328125q-5.515625 -4.671875 -9.296871 -10.609375q-3.78125 -5.9375 -3.78125 -14.703125q0 -12.359375 7.312496 -18.890625q7.328125 -6.546875 19.9375 -6.546875q7.796875 0 12.53125 2.640625q4.75 2.640625 7.203125 6.90625q2.453125 4.25 3.359375 9.0q0.90625 4.734375 1.015625 9.046875l-18.46875 2.28125q-0.125 -4.3125 -0.546875 -7.484375q-0.421875 -3.1875 -1.75 -4.921875q-1.3125 -1.75 -4.0625 -1.75q-3.0 0 -4.390625 2.515625q-1.375 2.515625 -1.375 5.046875q0 5.390625 2.578125 8.8125q2.578125 3.421875 6.78125 7.140625l8.03125 7.078125q6.375 5.40625 10.75 12.25q4.375 6.828125 4.375 16.90625q0 6.84375 -3.125 12.421875q-3.109375 5.578125 -8.8125 8.828125q-5.703125 3.234375 -13.5 3.234375zm47.157448 -1.4375l0 -39.71875l-18.484383 -57.484375l20.281258 0l9.25 30.71875l8.28125 -30.71875l19.4375 0l-18.125 57.484375l0 39.71875l-20.640625 0zm46.925568 0l0 -97.203125l15.109375 0l19.921875 46.796875l0 -46.796875l17.765625 0l0 97.203125l-14.515625 0l-19.921875 -50.40625l0 50.40625l-18.359375 0zm95.16368 1.4375q-11.046875 0 -17.46875 -4.015625q-6.421875 -4.015625 -9.0625 -11.28125q-2.640625 -7.265625 -2.640625 -17.09375l0 -35.046875q0 -10.078125 2.640625 -17.328125q2.640625 -7.265625 9.0625 -11.21875q6.421875 -3.96875 17.46875 -3.96875q10.796875 0 16.84375 3.546875q6.0625 3.53125 8.578125 9.890625q2.53125 6.359375 2.53125 14.640625l0 8.390625l-21.0 0l0 -9.71875q0 -2.875 -0.296875 -5.515625q-0.296875 -2.640625 -1.75 -4.375q-1.4375 -1.75 -4.90625 -1.75q-3.359375 0 -4.984375 1.8125q-1.625 1.796875 -2.046875 4.5q-0.421875 2.6875 -0.421875 5.6875l0 45.71875q0 3.25 0.546875 5.953125q0.546875 2.6875 2.15625 4.3125q1.625 1.625 4.75 1.625q3.359375 0 4.796875 -1.734375q1.4375 -1.75 1.796875 -4.5q0.359375 -2.765625 0.359375 -5.65625l0 -10.1875l21.0 0l0 8.390625q0 8.28125 -2.46875 14.828125q-2.453125 6.53125 -8.515625 10.3125q-6.0625 3.78125 -16.96875 3.78125zm40.07556 -1.4375l0 -97.203125l21.484375 0l0 39.359375l15.109375 0l0 -39.359375l21.484375 0l0 97.203125l-21.484375 0l0 -42.484375l-15.109375 0l0 42.484375l-21.484375 0zm72.840546 0l0 -97.203125l26.75 0q9.84375 0 17.046875 2.171875q7.203125 2.15625 11.21875 7.734375q4.015625 5.578125 4.015625 15.78125q0 6.0 -0.96875 10.6875q-0.953125 4.671875 -3.53125 8.09375q-2.578125 3.421875 -7.375 5.6875l13.328125 47.046875l-22.203125 0l-10.6875 -43.5625l-6.109375 0l0 43.5625l-21.484375 0zm21.484375 -55.921875l6.0 0q4.546875 0 7.0625 -1.609375q2.53125 -1.625 3.546875 -4.6875q1.015625 -3.0625 1.015625 -7.375q0 -6.25 -2.28125 -9.71875q-2.265625 -3.484375 -8.390625 -3.484375l-6.953125 0l0 26.875z" fill-rule="nonzero"/><path fill="#000000" fill-opacity="0.0" d="m483.7789 362.1384l-66.4252 -98.80316" fill-rule="evenodd"/><path stroke="#00a676" stroke-width="12.0" stroke-linejoin="round" stroke-linecap="butt" d="m483.7789 362.1384l-66.4252 -98.80316" fill-rule="evenodd"/></g></svg>
